<mxfile host="65bd71144e">
    <diagram id="9EAKyXTeCprH2Yzv8jO-" name="第 1 页">
        <mxGraphModel dx="638" dy="616" grid="1" gridSize="10" guides="1" tooltips="1" connect="1" arrows="1" fold="1" page="1" pageScale="1" pageWidth="827" pageHeight="1169" math="0" shadow="0">
            <root>
                <mxCell id="0"/>
                <mxCell id="1" parent="0"/>
                <mxCell id="42" value="DB-0" style="rounded=0;whiteSpace=wrap;html=1;fontSize=14;verticalAlign=top;" parent="1" vertex="1">
                    <mxGeometry x="39" y="440" width="750" height="340" as="geometry"/>
                </mxCell>
                <mxCell id="2" value="" style="rounded=0;whiteSpace=wrap;html=1;" parent="1" vertex="1">
                    <mxGeometry x="60" y="100" width="520" height="240" as="geometry"/>
                </mxCell>
                <mxCell id="3" value="DB-0" style="rounded=0;whiteSpace=wrap;html=1;verticalAlign=top;" parent="1" vertex="1">
                    <mxGeometry x="70" y="110" width="120" height="220" as="geometry"/>
                </mxCell>
                <mxCell id="4" value="DB-1" style="rounded=0;whiteSpace=wrap;html=1;verticalAlign=top;" parent="1" vertex="1">
                    <mxGeometry x="200" y="110" width="120" height="220" as="geometry"/>
                </mxCell>
                <mxCell id="5" value="DB-15" style="rounded=0;whiteSpace=wrap;html=1;verticalAlign=top;" parent="1" vertex="1">
                    <mxGeometry x="450" y="110" width="120" height="220" as="geometry"/>
                </mxCell>
                <mxCell id="6" value="..." style="text;html=1;strokeColor=none;fillColor=none;align=center;verticalAlign=middle;whiteSpace=wrap;rounded=0;fontSize=20;fontStyle=1" parent="1" vertex="1">
                    <mxGeometry x="353.5" y="205" width="60" height="30" as="geometry"/>
                </mxCell>
                <mxCell id="7" value="hashmap-0" style="rounded=0;whiteSpace=wrap;html=1;fontSize=14;fontStyle=0" parent="1" vertex="1">
                    <mxGeometry x="80" y="150" width="100" height="80" as="geometry"/>
                </mxCell>
                <mxCell id="8" value="hashmap-1" style="rounded=0;whiteSpace=wrap;html=1;fontSize=14;fontStyle=0" parent="1" vertex="1">
                    <mxGeometry x="80" y="240" width="100" height="80" as="geometry"/>
                </mxCell>
                <mxCell id="9" value="Redis" style="shape=callout;whiteSpace=wrap;html=1;perimeter=calloutPerimeter;fontSize=14;size=20;position=0.33;" parent="1" vertex="1">
                    <mxGeometry x="30" y="20" width="120" height="60" as="geometry"/>
                </mxCell>
                <mxCell id="44" value="rehash" style="html=1;exitX=1;exitY=0.5;exitDx=0;exitDy=0;entryX=0;entryY=0.5;entryDx=0;entryDy=0;fontSize=12;dashed=1;" parent="1" source="10" target="11" edge="1">
                    <mxGeometry relative="1" as="geometry"/>
                </mxCell>
                <mxCell id="10" value="hashmap-0" style="rounded=0;whiteSpace=wrap;html=1;fontSize=14;verticalAlign=top;" parent="1" vertex="1">
                    <mxGeometry x="59" y="470" width="230" height="290" as="geometry"/>
                </mxCell>
                <mxCell id="11" value="hashmap-1" style="rounded=0;whiteSpace=wrap;html=1;fontSize=14;verticalAlign=top;" parent="1" vertex="1">
                    <mxGeometry x="350" y="470" width="419" height="290" as="geometry"/>
                </mxCell>
                <mxCell id="12" value="" style="rounded=0;whiteSpace=wrap;html=1;fontSize=14;" parent="1" vertex="1">
                    <mxGeometry x="74" y="500" width="50" height="250" as="geometry"/>
                </mxCell>
                <mxCell id="19" style="edgeStyle=none;html=1;exitX=0.5;exitY=1;exitDx=0;exitDy=0;entryX=0.5;entryY=0;entryDx=0;entryDy=0;fontSize=14;fillColor=#fff2cc;strokeColor=#d6b656;" parent="1" source="16" target="17" edge="1">
                    <mxGeometry relative="1" as="geometry"/>
                </mxCell>
                <mxCell id="16" value="0" style="rounded=0;whiteSpace=wrap;html=1;fontSize=14;fillColor=#fff2cc;strokeColor=#d6b656;" parent="1" vertex="1">
                    <mxGeometry x="84" y="510" width="30" height="20" as="geometry"/>
                </mxCell>
                <mxCell id="22" style="edgeStyle=none;html=1;exitX=0.5;exitY=1;exitDx=0;exitDy=0;entryX=0.5;entryY=0;entryDx=0;entryDy=0;fontSize=14;fillColor=#fff2cc;strokeColor=#d6b656;" parent="1" source="17" target="21" edge="1">
                    <mxGeometry relative="1" as="geometry"/>
                </mxCell>
                <mxCell id="17" value="1" style="rounded=0;whiteSpace=wrap;html=1;fontSize=14;fillColor=#fff2cc;strokeColor=#d6b656;" parent="1" vertex="1">
                    <mxGeometry x="84" y="540" width="30" height="20" as="geometry"/>
                </mxCell>
                <mxCell id="26" style="edgeStyle=none;html=1;exitX=0.5;exitY=1;exitDx=0;exitDy=0;entryX=0.5;entryY=0;entryDx=0;entryDy=0;fontSize=14;fillColor=#fff2cc;strokeColor=#d6b656;" parent="1" source="21" target="23" edge="1">
                    <mxGeometry relative="1" as="geometry"/>
                </mxCell>
                <mxCell id="21" value="2" style="rounded=0;whiteSpace=wrap;html=1;fontSize=14;fillColor=#fff2cc;strokeColor=#d6b656;" parent="1" vertex="1">
                    <mxGeometry x="84" y="570" width="30" height="20" as="geometry"/>
                </mxCell>
                <mxCell id="27" style="edgeStyle=none;html=1;exitX=0.5;exitY=1;exitDx=0;exitDy=0;entryX=0.5;entryY=0;entryDx=0;entryDy=0;fontSize=14;fillColor=#fff2cc;strokeColor=#d6b656;" parent="1" source="23" target="24" edge="1">
                    <mxGeometry relative="1" as="geometry"/>
                </mxCell>
                <mxCell id="23" value="3" style="rounded=0;whiteSpace=wrap;html=1;fontSize=14;fillColor=#fff2cc;strokeColor=#d6b656;" parent="1" vertex="1">
                    <mxGeometry x="84" y="600" width="30" height="20" as="geometry"/>
                </mxCell>
                <mxCell id="28" style="edgeStyle=none;html=1;exitX=0.5;exitY=1;exitDx=0;exitDy=0;entryX=0.5;entryY=0;entryDx=0;entryDy=0;fontSize=14;fillColor=#fff2cc;strokeColor=#d6b656;" parent="1" source="24" target="25" edge="1">
                    <mxGeometry relative="1" as="geometry"/>
                </mxCell>
                <mxCell id="24" value="4" style="rounded=0;whiteSpace=wrap;html=1;fontSize=14;fillColor=#fff2cc;strokeColor=#d6b656;" parent="1" vertex="1">
                    <mxGeometry x="84" y="630" width="30" height="20" as="geometry"/>
                </mxCell>
                <mxCell id="35" style="edgeStyle=none;html=1;exitX=0.5;exitY=1;exitDx=0;exitDy=0;entryX=0.5;entryY=0;entryDx=0;entryDy=0;fontSize=14;fillColor=#fff2cc;strokeColor=#d6b656;" parent="1" source="25" target="31" edge="1">
                    <mxGeometry relative="1" as="geometry"/>
                </mxCell>
                <mxCell id="25" value="5" style="rounded=0;whiteSpace=wrap;html=1;fontSize=14;fillColor=#fff2cc;strokeColor=#d6b656;" parent="1" vertex="1">
                    <mxGeometry x="84" y="660" width="30" height="20" as="geometry"/>
                </mxCell>
                <mxCell id="36" style="edgeStyle=none;html=1;exitX=0.5;exitY=1;exitDx=0;exitDy=0;entryX=0.5;entryY=0;entryDx=0;entryDy=0;fontSize=14;fillColor=#fff2cc;strokeColor=#d6b656;" parent="1" source="31" target="32" edge="1">
                    <mxGeometry relative="1" as="geometry"/>
                </mxCell>
                <mxCell id="31" value="6" style="rounded=0;whiteSpace=wrap;html=1;fontSize=14;fillColor=#fff2cc;strokeColor=#d6b656;" parent="1" vertex="1">
                    <mxGeometry x="84" y="690" width="30" height="20" as="geometry"/>
                </mxCell>
                <mxCell id="32" value="7" style="rounded=0;whiteSpace=wrap;html=1;fontSize=14;fillColor=#fff2cc;strokeColor=#d6b656;" parent="1" vertex="1">
                    <mxGeometry x="84" y="720" width="30" height="20" as="geometry"/>
                </mxCell>
                <mxCell id="38" value="" style="rounded=0;whiteSpace=wrap;html=1;fontSize=14;" parent="1" vertex="1">
                    <mxGeometry x="124" y="500" width="50" height="250" as="geometry"/>
                </mxCell>
                <mxCell id="39" value="" style="rounded=0;whiteSpace=wrap;html=1;fontSize=14;" parent="1" vertex="1">
                    <mxGeometry x="174" y="500" width="50" height="250" as="geometry"/>
                </mxCell>
                <mxCell id="95" value="" style="edgeStyle=none;html=1;dashed=1;fontSize=12;fillColor=#f5f5f5;strokeColor=#666666;" parent="1" source="40" target="39" edge="1">
                    <mxGeometry relative="1" as="geometry"/>
                </mxCell>
                <mxCell id="40" value="" style="rounded=0;whiteSpace=wrap;html=1;fontSize=14;" parent="1" vertex="1">
                    <mxGeometry x="224" y="500" width="50" height="250" as="geometry"/>
                </mxCell>
                <mxCell id="43" value="set key1 value1" style="html=1;exitX=0.5;exitY=1;exitDx=0;exitDy=0;entryX=0.5;entryY=0;entryDx=0;entryDy=0;fontSize=14;" parent="1" source="41" target="12" edge="1">
                    <mxGeometry x="-0.28" y="54" relative="1" as="geometry">
                        <mxPoint x="20" y="420" as="sourcePoint"/>
                        <mxPoint as="offset"/>
                    </mxGeometry>
                </mxCell>
                <mxCell id="41" value="client" style="rounded=0;whiteSpace=wrap;html=1;fontSize=14;" parent="1" vertex="1">
                    <mxGeometry x="20" y="360" width="60" height="30" as="geometry"/>
                </mxCell>
                <mxCell id="45" value="" style="rounded=0;whiteSpace=wrap;html=1;fontSize=14;" parent="1" vertex="1">
                    <mxGeometry x="360" y="500" width="50" height="250" as="geometry"/>
                </mxCell>
                <mxCell id="46" style="edgeStyle=none;html=1;exitX=0.5;exitY=1;exitDx=0;exitDy=0;entryX=0.5;entryY=0;entryDx=0;entryDy=0;fontSize=14;fillColor=#fff2cc;strokeColor=#d6b656;" parent="1" source="47" target="49" edge="1">
                    <mxGeometry relative="1" as="geometry"/>
                </mxCell>
                <mxCell id="47" value="0" style="rounded=0;whiteSpace=wrap;html=1;fontSize=14;fillColor=#fff2cc;strokeColor=#d6b656;" parent="1" vertex="1">
                    <mxGeometry x="370" y="510" width="30" height="20" as="geometry"/>
                </mxCell>
                <mxCell id="48" style="edgeStyle=none;html=1;exitX=0.5;exitY=1;exitDx=0;exitDy=0;entryX=0.5;entryY=0;entryDx=0;entryDy=0;fontSize=14;fillColor=#fff2cc;strokeColor=#d6b656;" parent="1" source="49" target="51" edge="1">
                    <mxGeometry relative="1" as="geometry"/>
                </mxCell>
                <mxCell id="49" value="2" style="rounded=0;whiteSpace=wrap;html=1;fontSize=14;fillColor=#fff2cc;strokeColor=#d6b656;" parent="1" vertex="1">
                    <mxGeometry x="370" y="540" width="30" height="20" as="geometry"/>
                </mxCell>
                <mxCell id="50" style="edgeStyle=none;html=1;exitX=0.5;exitY=1;exitDx=0;exitDy=0;entryX=0.5;entryY=0;entryDx=0;entryDy=0;fontSize=14;fillColor=#fff2cc;strokeColor=#d6b656;" parent="1" source="51" target="53" edge="1">
                    <mxGeometry relative="1" as="geometry"/>
                </mxCell>
                <mxCell id="51" value="4" style="rounded=0;whiteSpace=wrap;html=1;fontSize=14;fillColor=#fff2cc;strokeColor=#d6b656;" parent="1" vertex="1">
                    <mxGeometry x="370" y="570" width="30" height="20" as="geometry"/>
                </mxCell>
                <mxCell id="52" style="edgeStyle=none;html=1;exitX=0.5;exitY=1;exitDx=0;exitDy=0;entryX=0.5;entryY=0;entryDx=0;entryDy=0;fontSize=14;fillColor=#fff2cc;strokeColor=#d6b656;startArrow=none;" parent="1" source="117" edge="1">
                    <mxGeometry relative="1" as="geometry">
                        <mxPoint x="385" y="630" as="targetPoint"/>
                    </mxGeometry>
                </mxCell>
                <mxCell id="53" value="6" style="rounded=0;whiteSpace=wrap;html=1;fontSize=14;fillColor=#fff2cc;strokeColor=#d6b656;" parent="1" vertex="1">
                    <mxGeometry x="370" y="600" width="30" height="20" as="geometry"/>
                </mxCell>
                <mxCell id="61" value="" style="rounded=0;whiteSpace=wrap;html=1;fontSize=14;" parent="1" vertex="1">
                    <mxGeometry x="410" y="500" width="50" height="250" as="geometry"/>
                </mxCell>
                <mxCell id="62" value="" style="rounded=0;whiteSpace=wrap;html=1;fontSize=14;" parent="1" vertex="1">
                    <mxGeometry x="460" y="500" width="50" height="250" as="geometry"/>
                </mxCell>
                <mxCell id="63" value="" style="rounded=0;whiteSpace=wrap;html=1;fontSize=14;" parent="1" vertex="1">
                    <mxGeometry x="510" y="500" width="50" height="250" as="geometry"/>
                </mxCell>
                <mxCell id="80" style="edgeStyle=none;html=1;exitX=0.5;exitY=1;exitDx=0;exitDy=0;entryX=0.5;entryY=0;entryDx=0;entryDy=0;fontSize=14;fillColor=#b0e3e6;strokeColor=#0e8088;" parent="1" source="81" target="83" edge="1">
                    <mxGeometry relative="1" as="geometry"/>
                </mxCell>
                <mxCell id="81" value="0" style="rounded=0;whiteSpace=wrap;html=1;fontSize=14;fillColor=#b0e3e6;strokeColor=#0e8088;" parent="1" vertex="1">
                    <mxGeometry x="184" y="510" width="30" height="20" as="geometry"/>
                </mxCell>
                <mxCell id="82" style="edgeStyle=none;html=1;exitX=0.5;exitY=1;exitDx=0;exitDy=0;entryX=0.5;entryY=0;entryDx=0;entryDy=0;fontSize=14;fillColor=#b0e3e6;strokeColor=#0e8088;" parent="1" source="83" target="85" edge="1">
                    <mxGeometry relative="1" as="geometry"/>
                </mxCell>
                <mxCell id="83" value="1" style="rounded=0;whiteSpace=wrap;html=1;fontSize=14;fillColor=#b0e3e6;strokeColor=#0e8088;" parent="1" vertex="1">
                    <mxGeometry x="184" y="540" width="30" height="20" as="geometry"/>
                </mxCell>
                <mxCell id="84" style="edgeStyle=none;html=1;exitX=0.5;exitY=1;exitDx=0;exitDy=0;entryX=0.5;entryY=0;entryDx=0;entryDy=0;fontSize=14;fillColor=#b0e3e6;strokeColor=#0e8088;" parent="1" source="85" target="87" edge="1">
                    <mxGeometry relative="1" as="geometry"/>
                </mxCell>
                <mxCell id="85" value="2" style="rounded=0;whiteSpace=wrap;html=1;fontSize=14;fillColor=#b0e3e6;strokeColor=#0e8088;" parent="1" vertex="1">
                    <mxGeometry x="184" y="570" width="30" height="20" as="geometry"/>
                </mxCell>
                <mxCell id="87" value="3" style="rounded=0;whiteSpace=wrap;html=1;fontSize=14;fillColor=#b0e3e6;strokeColor=#0e8088;" parent="1" vertex="1">
                    <mxGeometry x="184" y="600" width="30" height="20" as="geometry"/>
                </mxCell>
                <mxCell id="96" value="" style="rounded=0;whiteSpace=wrap;html=1;fontSize=14;" parent="1" vertex="1">
                    <mxGeometry x="560" y="500" width="50" height="250" as="geometry"/>
                </mxCell>
                <mxCell id="97" value="" style="rounded=0;whiteSpace=wrap;html=1;fontSize=14;" parent="1" vertex="1">
                    <mxGeometry x="610" y="500" width="50" height="250" as="geometry"/>
                </mxCell>
                <mxCell id="99" value="" style="rounded=0;whiteSpace=wrap;html=1;fontSize=14;" parent="1" vertex="1">
                    <mxGeometry x="660" y="500" width="50" height="250" as="geometry"/>
                </mxCell>
                <mxCell id="100" value="" style="rounded=0;whiteSpace=wrap;html=1;fontSize=14;" parent="1" vertex="1">
                    <mxGeometry x="710" y="500" width="50" height="250" as="geometry"/>
                </mxCell>
                <mxCell id="101" style="edgeStyle=none;html=1;exitX=0.5;exitY=1;exitDx=0;exitDy=0;entryX=0.5;entryY=0;entryDx=0;entryDy=0;fontSize=14;fillColor=#b0e3e6;strokeColor=#0e8088;" parent="1" source="102" target="104" edge="1">
                    <mxGeometry relative="1" as="geometry"/>
                </mxCell>
                <mxCell id="102" value="0" style="rounded=0;whiteSpace=wrap;html=1;fontSize=14;fillColor=#b0e3e6;strokeColor=#0e8088;" parent="1" vertex="1">
                    <mxGeometry x="470" y="510" width="30" height="20" as="geometry"/>
                </mxCell>
                <mxCell id="103" style="edgeStyle=none;html=1;exitX=0.5;exitY=1;exitDx=0;exitDy=0;entryX=0.5;entryY=0;entryDx=0;entryDy=0;fontSize=14;fillColor=#b0e3e6;strokeColor=#0e8088;" parent="1" source="104" target="106" edge="1">
                    <mxGeometry relative="1" as="geometry"/>
                </mxCell>
                <mxCell id="104" value="1" style="rounded=0;whiteSpace=wrap;html=1;fontSize=14;fillColor=#b0e3e6;strokeColor=#0e8088;" parent="1" vertex="1">
                    <mxGeometry x="470" y="540" width="30" height="20" as="geometry"/>
                </mxCell>
                <mxCell id="105" style="edgeStyle=none;html=1;exitX=0.5;exitY=1;exitDx=0;exitDy=0;entryX=0.5;entryY=0;entryDx=0;entryDy=0;fontSize=14;fillColor=#b0e3e6;strokeColor=#0e8088;" parent="1" source="106" target="107" edge="1">
                    <mxGeometry relative="1" as="geometry"/>
                </mxCell>
                <mxCell id="106" value="2" style="rounded=0;whiteSpace=wrap;html=1;fontSize=14;fillColor=#b0e3e6;strokeColor=#0e8088;" parent="1" vertex="1">
                    <mxGeometry x="470" y="570" width="30" height="20" as="geometry"/>
                </mxCell>
                <mxCell id="107" value="3" style="rounded=0;whiteSpace=wrap;html=1;fontSize=14;fillColor=#b0e3e6;strokeColor=#0e8088;" parent="1" vertex="1">
                    <mxGeometry x="470" y="600" width="30" height="20" as="geometry"/>
                </mxCell>
                <mxCell id="110" style="edgeStyle=none;html=1;exitX=0.5;exitY=1;exitDx=0;exitDy=0;entryX=0.5;entryY=0;entryDx=0;entryDy=0;fontSize=14;fillColor=#fff2cc;strokeColor=#d6b656;" parent="1" source="111" target="113" edge="1">
                    <mxGeometry relative="1" as="geometry"/>
                </mxCell>
                <mxCell id="111" value="1" style="rounded=0;whiteSpace=wrap;html=1;fontSize=14;fillColor=#fff2cc;strokeColor=#d6b656;" parent="1" vertex="1">
                    <mxGeometry x="520" y="510" width="30" height="20" as="geometry"/>
                </mxCell>
                <mxCell id="112" style="edgeStyle=none;html=1;exitX=0.5;exitY=1;exitDx=0;exitDy=0;entryX=0.5;entryY=0;entryDx=0;entryDy=0;fontSize=14;fillColor=#fff2cc;strokeColor=#d6b656;" parent="1" source="113" target="115" edge="1">
                    <mxGeometry relative="1" as="geometry"/>
                </mxCell>
                <mxCell id="113" value="3" style="rounded=0;whiteSpace=wrap;html=1;fontSize=14;fillColor=#fff2cc;strokeColor=#d6b656;" parent="1" vertex="1">
                    <mxGeometry x="520" y="540" width="30" height="20" as="geometry"/>
                </mxCell>
                <mxCell id="114" style="edgeStyle=none;html=1;exitX=0.5;exitY=1;exitDx=0;exitDy=0;entryX=0.5;entryY=0;entryDx=0;entryDy=0;fontSize=14;fillColor=#fff2cc;strokeColor=#d6b656;" parent="1" source="115" target="116" edge="1">
                    <mxGeometry relative="1" as="geometry"/>
                </mxCell>
                <mxCell id="115" value="5" style="rounded=0;whiteSpace=wrap;html=1;fontSize=14;fillColor=#fff2cc;strokeColor=#d6b656;" parent="1" vertex="1">
                    <mxGeometry x="520" y="570" width="30" height="20" as="geometry"/>
                </mxCell>
                <mxCell id="116" value="7" style="rounded=0;whiteSpace=wrap;html=1;fontSize=14;fillColor=#fff2cc;strokeColor=#d6b656;" parent="1" vertex="1">
                    <mxGeometry x="520" y="600" width="30" height="20" as="geometry"/>
                </mxCell>
                <mxCell id="118" value="" style="edgeStyle=none;html=1;exitX=0.5;exitY=1;exitDx=0;exitDy=0;entryX=0.5;entryY=0;entryDx=0;entryDy=0;fontSize=14;fillColor=#fff2cc;strokeColor=#d6b656;endArrow=classic;endFill=1;" parent="1" source="53" target="117" edge="1">
                    <mxGeometry relative="1" as="geometry">
                        <mxPoint x="385" y="620" as="sourcePoint"/>
                        <mxPoint x="385" y="630" as="targetPoint"/>
                    </mxGeometry>
                </mxCell>
                <mxCell id="117" value="8" style="rounded=0;whiteSpace=wrap;html=1;fontSize=14;fillColor=#f8cecc;strokeColor=#b85450;" parent="1" vertex="1">
                    <mxGeometry x="370" y="630" width="30" height="20" as="geometry"/>
                </mxCell>
            </root>
        </mxGraphModel>
    </diagram>
</mxfile>